# xmcd
#
# Track frame offsets: 
#        150
#        16332
#        35419
#        54280
#        73201
#        92306
#        112199
#        131847
#        150103
#        168195
#
# Disc length: 2439 seconds
#
# Revision: 1
# Processed by: cddbd v1.5.2PL0 Copyright (c) Steve Scherf et al.
# Submitted via: ExactAudioCopy v0.99pb5
#
DISCID=7509850a
DTITLE=Phan Dinh Tung - Tung Teen
DYEAR=2008
DGENRE=Pop
TTITLE0=Luc Vua Yeu (Nguyen Hai Phong)
TTITLE1=Nang Cong Chua Co Tich (Nguyen Hong Thuan)
TTITLE2=Ngoi Ben Em (Nguyen Van Chung)
TTITLE3=Anh Chang Rang Sun (Nguyen Hong Thuan)
TTITLE4=Cao Cao La Tre (Nguyen Van Chung)
TTITLE5=Nang Giang Tien (Nguyen Hong Thuan)
TTITLE6=Trang Luu But Ngot Ngao (Phan Dinh Tung, Nguyen Hong Thuan)
TTITLE7=Mua Nang Khi Yeu (Nguyen Hong Thuan)
TTITLE8=Tinh Yeu Dieu Ky (Nguyen Hong Thuan)
TTITLE9=Be Binh Khoc Nhe (Phan Dinh Tung)
EXTD=
EXTT0=
EXTT1=
EXTT2=
EXTT3=
EXTT4=
EXTT5=
EXTT6=
EXTT7=
EXTT8=
EXTT9=
PLAYORDER=
